<svg viewBox="0 0 320 200" xmlns="http://www.w3.org/2000/svg" role="img" aria-label="Диаграмма с данными по работе скважин">
  <rect width="320" height="200" fill="#f1f5f9"/>
  <rect x="36" y="28" width="248" height="140" rx="8" fill="#ffffff" stroke="#cbd5f5" stroke-width="2"/>
  <line x1="52" y1="44" x2="52" y2="152" stroke="#e5e7eb" stroke-width="1.5"/>
  <line x1="52" y1="152" x2="268" y2="152" stroke="#e5e7eb" stroke-width="1.5"/>
  <polyline points="60,132 110,118 150,126 190,104 230,96 260,84" fill="none" stroke="#0f766e" stroke-width="2.5"/>
  <polyline points="60,120 110,104 150,98 190,80 230,76 260,68" fill="none" stroke="#f97316" stroke-width="2.5"/>
  <circle cx="60" cy="132" r="3" fill="#0f766e"/>
  <circle cx="110" cy="118" r="3" fill="#0f766e"/>
  <circle cx="150" cy="126" r="3" fill="#0f766e"/>
  <circle cx="190" cy="104" r="3" fill="#0f766e"/>
  <circle cx="230" cy="96" r="3" fill="#0f766e"/>
  <circle cx="260" cy="84" r="3" fill="#0f766e"/>
  <circle cx="60" cy="120" r="3" fill="#f97316"/>
  <circle cx="110" cy="104" r="3" fill="#f97316"/>
  <circle cx="150" cy="98" r="3" fill="#f97316"/>
  <circle cx="190" cy="80" r="3" fill="#f97316"/>
  <circle cx="230" cy="76" r="3" fill="#f97316"/>
  <circle cx="260" cy="68" r="3" fill="#f97316"/>
  <rect x="64" y="52" width="28" height="6" rx="3" fill="#e5e7eb"/>
  <rect x="64" y="66" width="34" height="6" rx="3" fill="#e5e7eb"/>
  <rect x="64" y="80" width="40" height="6" rx="3" fill="#e5e7eb"/>
  <g transform="translate(190,46)">
    <rect x="0" y="0" width="64" height="10" rx="5" fill="#0f766e"/>
    <rect x="0" y="16" width="48" height="10" rx="5" fill="#f97316"/>
  </g>
</svg>

