<svg viewBox="0 0 320 200" xmlns="http://www.w3.org/2000/svg" role="img" aria-label="Иллюстрация насосно-компрессорного оборудования">
  <rect width="320" height="200" fill="#020617"/>
  <rect x="24" y="132" width="272" height="4" fill="#0f172a"/>
  <g transform="translate(40,80)">
    <rect x="0" y="32" width="40" height="40" rx="4" fill="#1e293b"/>
    <circle cx="20" cy="52" r="10" fill="#22c55e"/>
    <circle cx="20" cy="52" r="5" fill="#022c22"/>
    <rect x="40" y="46" width="70" height="12" rx="6" fill="#0f766e"/>
    <rect x="110" y="40" width="30" height="24" rx="4" fill="#1e293b"/>
    <rect x="140" y="46" width="40" height="12" rx="6" fill="#f97316"/>
  </g>
  <g transform="translate(60,36)">
    <rect x="0" y="0" width="80" height="32" rx="4" fill="#020617" stroke="#1e293b" stroke-width="2"/>
    <rect x="10" y="10" width="10" height="12" rx="2" fill="#22c55e"/>
    <rect x="28" y="10" width="10" height="12" rx="2" fill="#eab308"/>
    <rect x="46" y="10" width="10" height="12" rx="2" fill="#f97316"/>
  </g>
  <polyline points="160,70 200,60 240,72 280,64" fill="none" stroke="#38bdf8" stroke-width="2"/>
  <circle cx="160" cy="70" r="3" fill="#38bdf8"/>
  <circle cx="200" cy="60" r="3" fill="#38bdf8"/>
  <circle cx="240" cy="72" r="3" fill="#38bdf8"/>
  <circle cx="280" cy="64" r="3" fill="#38bdf8"/>
</svg>

